<?xml version="1.0" encoding="UTF-8"?>
<svg width="27px" height="20px" viewBox="0 0 27 20" version="1.1" xmlns="http://www.w3.org/2000/svg" xmlns:xlink="http://www.w3.org/1999/xlink">
    <!-- Generator: Sketch 44.1 (41455) - http://www.bohemiancoding.com/sketch -->
    <title>cart icon</title>
    <desc>Created with Sketch.</desc>
    <defs>
        <polygon id="path-1" points="5.41857086 4.94583535 0.0890723174 4.94583535 0.0890723174 0.0137880771 5.41857086 0.0137880771 5.41857086 4.94583535"></polygon>
    </defs>
    <g id="TVs" stroke="none" stroke-width="1" fill="none" fill-rule="evenodd">
        <g id="IHG-Telvisions-PLP-Compare-One-Product-selected" transform="translate(-940.000000, -108.000000)">
            <g id="disclaimer-message-and-cart-icon" transform="translate(940.000000, 101.000000)">
                <g id="cart-icon" transform="translate(0.632940, 0.000000)">
                    <g transform="translate(0.000000, 7.000000)">
                        <g id="Group-3" transform="translate(0.000000, 0.086058)" fill="#D96932">
                            <path d="M25.7695364,4.51027212 C23.1656046,4.17675796 20.5613172,3.84522213 17.9573855,3.51253227 C14.8342676,3.11340335 11.7115053,2.71345014 8.58838747,2.31531039 C8.16343718,2.26107106 7.86490516,2.44340753 7.81600921,2.77692169 C7.76960251,3.09246599 8.00928158,3.35690332 8.4052499,3.41064806 C8.9699537,3.48714365 9.53590213,3.55490159 10.1013172,3.62678106 C12.2050878,3.89451562 14.3090362,4.16159073 16.412629,4.43031445 C18.5347133,4.70134623 20.6566199,4.97386175 22.7787043,5.24604756 C23.4973859,5.33820496 24.2160675,5.43151638 24.9537741,5.52680615 C24.9287038,5.59901534 24.9143017,5.64814397 24.8949211,5.69529427 C24.0169276,7.83288431 23.1355558,9.96932032 22.2657413,12.109713 C22.1942643,12.2859496 22.0831371,12.2910603 21.925781,12.2908954 C17.9829892,12.2889171 14.0400195,12.2879279 10.0972277,12.2935332 C9.88848641,12.2938629 9.7908723,12.2411074 9.71246098,12.0533305 C8.11756389,8.23003489 6.51359882,4.40987166 4.91105619,0.589213852 C4.7268518,0.150023672 4.61163515,0.0791333656 4.09369365,0.0791333656 C2.96055217,0.0791333656 1.82741068,0.0783090598 0.694091389,0.0796279492 C0.263807002,0.0801225327 0.023238913,0.27976942 0.012926312,0.676095693 C-0.000586751437,1.19672729 -0.0108993525,1.71917237 0.0216386818,2.23848508 C0.0323068897,2.40862182 0.145745501,2.60183912 0.27500862,2.72993625 C0.430586653,2.88375173 0.662797979,2.88441118 0.877051156,2.78862683 C1.11513,2.68212651 1.21434433,2.48973352 1.22163427,2.26057648 C1.23265809,1.91403828 1.22447913,1.5670055 1.22447913,1.18188979 C2.0183716,1.18188979 2.77528096,1.19194632 3.5316569,1.17611965 C3.78182638,1.17100895 3.89953227,1.23184273 3.99501273,1.46132949 C5.57088485,5.24489353 7.15955881,9.0266441 8.74592134,12.8064163 C8.97688804,13.356723 9.08108087,13.4234917 9.72188456,13.4234917 L22.3089475,13.4234917 C22.3839806,13.4234917 22.4590136,13.4228323 22.5338689,13.4198648 C22.8569378,13.4073353 23.0719022,13.2658844 23.1896081,12.9777071 C24.2267357,10.4413179 25.2700864,7.90624753 26.3081031,5.37018803 C26.5027979,4.89439867 26.3018799,4.57852465 25.7695364,4.51027212" id="Fill-1"></path>
                        </g>
                        <g id="Group-6" transform="translate(16.713526, 14.099258)">
                            <mask id="mask-2" fill="white">
                                <use xlink:href="#path-1"></use>
                            </mask>
                            <g id="Clip-5"></g>
                            <path d="M2.74741915,3.84281515 C1.94410309,3.84083682 1.27680669,3.21980476 1.2826742,2.47990779 C1.28854172,1.7345704 1.95210425,1.12639752 2.75862077,1.12722182 C3.5653151,1.12804613 4.21998746,1.73918652 4.21803162,2.48979946 C4.21625358,3.23695032 3.5555359,3.84479349 2.74741915,3.84281515 M2.73692875,0.0139142835 C1.26844992,0.0275977613 0.0857012705,1.13546488 0.0890795363,2.49375613 C0.0924578022,3.85369599 1.28036276,4.9459013 2.75577592,4.9459013 C4.22869983,4.94573644 5.41429334,3.85204738 5.41856062,2.48946974 C5.4226501,1.1277164 4.20131809,6.59444713e-05 2.73692875,0.0139142835" id="Fill-4" fill="#D96932" mask="url(#mask-2)"></path>
                        </g>
                        <path d="M12.5424876,17.9420729 C11.7363267,17.9428972 11.0740088,17.3334054 11.0713417,16.588068 C11.0686747,15.8448738 11.7304592,15.2301065 12.5348421,15.2286227 C13.3474039,15.227139 13.9979868,15.8270688 14.0006538,16.5803195 C14.0034987,17.3310973 13.350071,17.9412485 12.5424876,17.9420729 M12.552089,14.113172 C11.0951674,14.0970156 9.88432581,15.211642 9.88094754,16.5720765 C9.87739147,17.9356433 11.0476939,19.0412023 12.4982146,19.0449941 C14.0043877,19.0489508 15.1933595,17.971583 15.201005,16.5956516 C15.2086506,15.2340631 14.0299914,14.1294932 12.552089,14.113172" id="Fill-7" fill="#D96932"></path>
                    </g>
                </g>
            </g>
        </g>
    </g>
</svg>